inDegrees=no
num_controls=7
num_derivatives=13
num_iterations=109
num_multipliers=7
num_parameters=0
num_slacks=7
num_states=26
objective=4.218014
objective_accelerations=0.667712
objective_balance=0.023458
objective_effort=0.657317
objective_height=2.789175
objective_ligament=0.080353
solver_duration=1096.396193
status=Solve_Succeeded
success=true
DataType=double
version=3
OpenSimVersion=4.4-2022-07-23-0e9fedc
endheader
time	/jointset/ground_pelvis/pelvis_tilt/value	/jointset/ground_pelvis/pelvis_tx/value	/jointset/ground_pelvis/pelvis_ty/value	/jointset/hip_l/hip_flexion_l/value	/jointset/hip_l/hip_adduction_l/value	/jointset/hip_l/hip_rotation_l/value	/jointset/back/lumbar_extension/value	/jointset/patellofemoral_l/patellar_flexion_l/value	/jointset/knee_l/knee_flexion_l/value	/jointset/knee_l/knee_adduction_l/value	/jointset/knee_l/knee_rotation_l/value	/jointset/ankle_l/ankle_angle_l/value	/jointset/subtalar_l/subtalar_angle_l/value	/jointset/ground_pelvis/pelvis_tilt/speed	/jointset/ground_pelvis/pelvis_tx/speed	/jointset/ground_pelvis/pelvis_ty/speed	/jointset/hip_l/hip_flexion_l/speed	/jointset/hip_l/hip_adduction_l/speed	/jointset/hip_l/hip_rotation_l/speed	/jointset/back/lumbar_extension/speed	/jointset/patellofemoral_l/patellar_flexion_l/speed	/jointset/knee_l/knee_flexion_l/speed	/jointset/knee_l/knee_adduction_l/speed	/jointset/knee_l/knee_rotation_l/speed	/jointset/ankle_l/ankle_angle_l/speed	/jointset/subtalar_l/subtalar_angle_l/speed	/forceset/tau_hip_flexion_l	/forceset/tau_hip_adduction_l	/forceset/tau_hip_rotation_l	/forceset/tau_knee_flexion_l	/forceset/tau_ankle_angle_l	/forceset/tau_subtalar_angle_l	/forceset/tau_lumbar_extension	lambda_cid13_p0	lambda_cid13_p1	lambda_cid13_p2	lambda_cid13_p3	lambda_cid13_p4	lambda_cid13_p5	lambda_cid14_p0	/jointset/ground_pelvis/pelvis_tilt/accel	/jointset/ground_pelvis/pelvis_tx/accel	/jointset/ground_pelvis/pelvis_ty/accel	/jointset/hip_l/hip_flexion_l/accel	/jointset/hip_l/hip_adduction_l/accel	/jointset/hip_l/hip_rotation_l/accel	/jointset/back/lumbar_extension/accel	/jointset/patellofemoral_l/patellar_flexion_l/accel	/jointset/knee_l/knee_flexion_l/accel	/jointset/knee_l/knee_adduction_l/accel	/jointset/knee_l/knee_rotation_l/accel	/jointset/ankle_l/ankle_angle_l/accel	/jointset/subtalar_l/subtalar_angle_l/accel	gamma_cid13_p0	gamma_cid13_p1	gamma_cid13_p2	gamma_cid13_p3	gamma_cid13_p4	gamma_cid13_p5	gamma_cid14_p0
0	-0.03603995005474536	0.05633649144687806	0.9203554360470924	0.3085811930696054	-0.2954189733095994	-0.2967034972215034	-0.3879500408040475	0.2499276582271041	0.249927658227084	-0.1745327254199101	-0.1697224080837888	-0.0008036543073733089	0.0006042245645308128	0	0	0	0	0	0	0	0	0	0	0	0	0	0.07518352943825223	-0.0249688492581433	-0.01367672771450422	-0.1981166997252708	0.1071825265109509	-0.01888170438462627	-0.01657768612460293	-7.676463466446858	6.425287925757244	2.084121949207357	41.08221520741409	-588.8565275714275	-61.00840073834479	-23.03514098283384	-2.121183707593487	-3.158316031554923	-1.463051606684332	15.50130489229977	-0.6381121470655935	4.612290139322426	-8.408302623717121	15.08098339628673	15.08098339629561	3.489474105091005	-0.4969231737963272	2.864327930173912	0.2719813511915387	5.612401616899044e-08	3.556969130017624e-07	9.161379274798303e-09	-4.975394092858136e-08	4.146014294224137e-07	5.783932308168872e-08	3.546397328421852e-08
0.01	-0.03613972955753186	0.05618180040725097	0.92028394107999	0.3093367422146456	-0.2954515071170164	-0.2964716155714215	-0.3883694095484322	0.2506678200345317	0.2506678200346743	-0.1743644515347008	-0.1697420066722215	-0.0006620996073837725	0.0006165824093366856	-0.01985332258179833	-0.03063786335148115	-0.01424334812417055	0.1501945968879273	-0.006477082948159515	0.04618406399851951	-0.08318201759690115	0.1473281676064393	0.1473281676064741	0.03345746682731156	-0.003847469695442786	0.02837313612034995	0.002525932060729399	0.07163890772395927	-0.03587049936972665	-0.01382243114860893	-0.2010887630967837	0.1125122505453262	-0.008713420933614545	-0.0114361560222636	-5.708116034520437	1.82648837796792	2.632336465748695	36.54596028463117	-592.9007639651212	-70.33129924347634	-23.04405455253731	-1.902034950184011	-2.971479753164204	-1.396546700600851	14.64124513357814	-0.6481237062124088	4.592642715279561	-8.1693916348062	14.45309726583196	14.45309726583208	3.244351525540695	-0.3178333112240103	2.833149259724672	0.2509951325288886	-9.927885558656002e-09	3.190404574452397e-07	1.982573867299586e-07	2.506276557704865e-08	1.039938677039649e-07	-9.088796857144476e-08	1.806118921671355e-08
0.02	-0.03643496796951594	0.0557297390808638	0.9200716985745807	0.3115667789378285	-0.2955479352214008	-0.2957836576443078	-0.3895998465302257	0.2528601362828002	0.2528601362827997	-0.1738675092703005	-0.1697979148461124	-0.000234944984837908	0.0006558187745527984	-0.03909178183189335	-0.05947405735201572	-0.02814950766141638	0.2948975156374266	-0.012778859397143	0.09121525540357257	-0.1622136474789272	0.2904308881332499	0.2904308881332878	0.06573367581418921	-0.007261917143137297	0.05711998451104786	0.005375704082058116	0.0680942860094171	-0.04677214948140006	-0.0139681345842953	-0.2040608264682735	0.1178419745796232	0.001454862517297623	-0.006294625920016271	-3.619454648060513	-2.78915908961213	3.178414188256441	31.84769979736445	-595.1342937154333	-79.50189745627038	-23.07008745293872	-1.998211041252238	-2.797982161366148	-1.395613889299409	14.40296926461433	-0.603050847230443	4.381715620629113	-7.578225080741853	14.23589398036111	14.23589398036363	3.25322253700417	-0.4103187242467685	2.93907038424288	0.3367493433111405	-7.597978728630245e-08	2.823840018887171e-07	3.87353394185119e-07	9.987947208267866e-08	-2.066136940144838e-07	-2.396152602245782e-07	6.584051492085711e-10
0.03	-0.03691995037301341	0.05499711938007792	0.9197213444617269	0.3152188526984073	-0.2957061085575752	-0.2946531509458715	-0.3916003649680342	0.25646285076586	0.256462850765787	-0.1730531964001993	-0.1698873829154807	0.0004798531161782382	0.0007250161526616142	-0.05779726069389672	-0.08686982322881483	-0.04192899449477806	0.4347799000486724	-0.01880241825593414	0.1346348636660092	-0.2373059206042386	0.4294256820343397	0.4294256820343552	0.09693356721052564	-0.01058360935844074	0.08572925537200919	0.008483362503199081	0.06058646203397868	-0.04067337610173426	-0.01315236653831075	-0.1987898134154266	0.1139648601119527	-0.0002587037434007983	0.0003937206699455453	-4.914166634435188	-1.878807869301651	3.102437583426189	31.37540294122252	-595.9078094433193	-76.51202111093423	-23.11174586850358	-1.790604597904501	-2.683344587599115	-1.370310595928855	13.67026291474903	-0.5941060131528619	4.28435496769858	-7.387110505994121	13.62832306783789	13.62832306783293	3.024163562008647	-0.2858242654054557	2.805306250360823	0.300622952635948	-1.132175139814221e-07	2.240536432864433e-07	5.213906295072313e-07	1.35770308064912e-07	-3.777491772650575e-07	-3.503236668194953e-07	-1.473301837030914e-08
0.04	-0.03758876522302249	0.05399594786316998	0.9192329565774225	0.3202476282801885	-0.2959229370039385	-0.293095993857097	-0.3943342825526217	0.2614349233824609	0.2614349233824659	-0.1719327263919959	-0.1700086138661097	0.001477434088469901	0.000825859887205842	-0.07585827112501467	-0.113184420576431	-0.0557562619515214	0.5702378798746611	-0.02450988143275503	0.1765453334743518	-0.308893476832228	0.5643025148496275	0.5643025148496082	0.1269651034492966	-0.01361449338307133	0.1136765587664808	0.01170497536915746	0.05307863805901079	-0.03457460272188673	-0.01233659849192783	-0.1935188003623296	0.1100877456444375	-0.001972270003863718	0.007082067260111442	-6.100629571236837	-0.9808589572398221	3.020953082980307	30.74405110827382	-595.065624219199	-73.37625031514817	-23.16709880158419	-1.869317355074538	-2.581748455530069	-1.405170013975759	13.51808834756308	-0.5398317108363798	4.079887929810297	-6.877281701277189	13.4123017632008	13.41230176320085	3.019551505491094	-0.3521570861122735	2.80667689094437	0.3595402322744208	-1.498611339748402e-07	1.652764000852879e-07	6.542926324142294e-07	1.708585487786218e-07	-5.460089475575307e-07	-4.602481788771296e-07	-3.008297053832197e-08
0.05	-0.03843555634897303	0.05273746850966909	0.9186056044215506	0.3266094991133563	-0.2961949341547395	-0.2911278966836815	-0.3977657366195019	0.267735760840627	0.2677357608406877	-0.1705173554510429	-0.1701590304316496	0.002751822167778862	0.0009600547326920884	-0.09338275347302781	-0.1382862067504058	-0.06975335209281429	0.7013450066508353	-0.02981653355590961	0.216805534751023	-0.3768094906090803	0.6951747430268352	0.6951747430268187	0.1559121156822265	-0.01640045481086607	0.1411366069409495	0.01519013772767699	0.04653709283854094	-0.03420739253580057	-0.01178081135291258	-0.1915451017560228	0.1094803644193608	0.0002423142630124544	0.01315169926534395	-6.067751934691314	-1.920180752661145	3.138463225945826	28.83286940335849	-594.149361036565	-74.16960914776438	-23.23367188419864	-1.676431568564663	-2.440572738365971	-1.402966506206142	12.78832204214555	-0.5152546761314303	3.958708838758103	-6.660584325332005	12.82115442103191	12.82115442103233	2.802828194988464	-0.2314532153234071	2.706006163450372	0.3513240656140322	-1.722055627492259e-07	3.967515661990419e-08	6.929693271678546e-07	1.846610640068224e-07	-6.440375568049427e-07	-5.114309335834733e-07	-4.689622030926642e-08
